# xmcd CD database file
#
# Track frame offsets:
#	150
#	14712
#	31656
#	49896
#	66498
#	77572
#	96791
#	110323
#	125410
#	144847
#	157324
#	173231
#	185936
#	206215
#
# Disc length: 3061 seconds
#
# Revision: 0
# Processed by: cddbd v1.5.1PL2 Copyright (c) Steve Scherf et al.
# Submitted via: CDex 1.51
#
DISCID=cb0bf30e
DTITLE=no - jazz christmax
DYEAR=1900
DGENRE=Jazz
TTITLE0=HERE COMES SANTA CLAUS
TTITLE1=JINGLE BELL ROCK
TTITLE2=LET IT SNOW
TTITLE3=RUDOLPH THE RED NOSED REINDEER
TTITLE4=ROCKIN'AROUND THE CHRISTMAS TREE
TTITLE5=GOD REST YE MERRY CHRISTMAS
TTITLE6=WE WISH YOU A MERRY CHRISTMAS
TTITLE7=SLEIGH RIDE
TTITLE8=SANTA CLAUS IS COMING TO TOWN
TTITLE9=HOLLY JOLLY SANTA CLAUS
TTITLE10=THE MOST WONDERFUL DAY OF THE YEAR
TTITLE11=BLUE CHRISTMAS
TTITLE12=LINUS AND LUCY
TTITLE13=HAVE YOURSELF A MERRY LITTLE CHRISTMAS
EXTD=
EXTT0=
EXTT1=
EXTT2=
EXTT3=
EXTT4=
EXTT5=
EXTT6=
EXTT7=
EXTT8=
EXTT9=
EXTT10=
EXTT11=
EXTT12=
EXTT13=
PLAYORDER=
